<mxfile host="app.diagrams.net" agent="Mozilla/5.0 (Windows NT 10.0; Win64; x64) AppleWebKit/537.36 (KHTML, like Gecko) Chrome/130.0.0.0 Safari/537.36" version="24.8.3" pages="2">
  <diagram id="Ht1M8jgEwFfnCIfOTk4-" name="Page-1">
    <mxGraphModel dx="893" dy="934" grid="1" gridSize="12" guides="1" tooltips="1" connect="1" arrows="1" fold="1" page="0" pageScale="1" pageWidth="1169" pageHeight="827" background="#ffffff" math="0" shadow="1">
      <root>
        <mxCell id="0" />
        <mxCell id="1" parent="0" />
        <mxCell id="7uyuWl18CzobCzFsrTEi-2" value="" style="points=[[0,0],[0.25,0],[0.5,0],[0.75,0],[1,0],[1,0.25],[1,0.5],[1,0.75],[1,1],[0.75,1],[0.5,1],[0.25,1],[0,1],[0,0.75],[0,0.5],[0,0.25]];outlineConnect=0;html=1;whiteSpace=wrap;fontSize=12;fontStyle=0;container=1;pointerEvents=0;collapsible=0;recursiveResize=0;shape=mxgraph.aws4.group;grIcon=mxgraph.aws4.group_vpc2;verticalAlign=top;align=left;spacingLeft=30;dashed=0;labelBorderColor=default;textShadow=1;rounded=0;labelBackgroundColor=default;spacingTop=-2;fillColor=#eeeeee;strokeColor=#36393d;" vertex="1" parent="1">
          <mxGeometry x="40" y="50" width="750" height="680" as="geometry" />
        </mxCell>
        <mxCell id="7uyuWl18CzobCzFsrTEi-4" value="&lt;b style=&quot;background-color: rgb(252, 252, 252);&quot;&gt;Internet&lt;br&gt;gateway&lt;/b&gt;" style="outlineConnect=0;strokeColor=#82b366;fillColor=#d5e8d4;dashed=0;verticalLabelPosition=bottom;verticalAlign=top;align=center;html=1;fontSize=12;fontStyle=0;aspect=fixed;shape=mxgraph.aws4.resourceIcon;resIcon=mxgraph.aws4.internet_gateway;rounded=0;" vertex="1" parent="7uyuWl18CzobCzFsrTEi-2">
          <mxGeometry x="344" y="-30" width="60" height="60" as="geometry" />
        </mxCell>
        <mxCell id="7uyuWl18CzobCzFsrTEi-7" value="Public subnet - 1 : 192.168.0.0/26" style="points=[[0,0],[0.25,0],[0.5,0],[0.75,0],[1,0],[1,0.25],[1,0.5],[1,0.75],[1,1],[0.75,1],[0.5,1],[0.25,1],[0,1],[0,0.75],[0,0.5],[0,0.25]];outlineConnect=0;html=1;whiteSpace=wrap;fontSize=12;fontStyle=1;container=1;pointerEvents=0;collapsible=0;recursiveResize=0;shape=mxgraph.aws4.group;grIcon=mxgraph.aws4.group_security_group;grStroke=0;verticalAlign=top;align=left;spacingLeft=30;rounded=0;labelBorderColor=none;labelBackgroundColor=none;textShadow=1;strokeWidth=58;perimeterSpacing=2;dashed=1;" vertex="1" parent="7uyuWl18CzobCzFsrTEi-2">
          <mxGeometry x="30" y="80" width="240" height="240" as="geometry" />
        </mxCell>
        <mxCell id="7uyuWl18CzobCzFsrTEi-18" value="" style="points=[[0,0,0],[0.25,0,0],[0.5,0,0],[0.75,0,0],[1,0,0],[0,1,0],[0.25,1,0],[0.5,1,0],[0.75,1,0],[1,1,0],[0,0.25,0],[0,0.5,0],[0,0.75,0],[1,0.25,0],[1,0.5,0],[1,0.75,0]];outlineConnect=0;fontColor=#232F3E;fillColor=#ED7100;strokeColor=#ffffff;dashed=0;verticalLabelPosition=bottom;verticalAlign=top;align=center;html=1;fontSize=12;fontStyle=0;aspect=fixed;shape=mxgraph.aws4.resourceIcon;resIcon=mxgraph.aws4.ec2;hachureGap=4;fontFamily=Architects Daughter;fontSource=https%3A%2F%2Ffonts.googleapis.com%2Fcss%3Ffamily%3DArchitects%2BDaughter;rounded=0;" vertex="1" parent="7uyuWl18CzobCzFsrTEi-7">
          <mxGeometry x="38" y="76" width="70" height="70" as="geometry" />
        </mxCell>
        <mxCell id="7uyuWl18CzobCzFsrTEi-20" value="Webserver&lt;div&gt;Instance&amp;nbsp;&lt;/div&gt;" style="text;html=1;align=center;verticalAlign=middle;resizable=0;points=[];autosize=1;strokeColor=none;fillColor=none;fontFamily=Architects Daughter;fontSource=https%3A%2F%2Ffonts.googleapis.com%2Fcss%3Ffamily%3DArchitects%2BDaughter;textShadow=1;fontStyle=1;rounded=0;" vertex="1" parent="7uyuWl18CzobCzFsrTEi-7">
          <mxGeometry x="31" y="146" width="84" height="48" as="geometry" />
        </mxCell>
        <mxCell id="7uyuWl18CzobCzFsrTEi-44" value="" style="outlineConnect=0;fontColor=#232F3E;gradientColor=none;fillColor=#8C4FFF;strokeColor=none;dashed=0;verticalLabelPosition=bottom;verticalAlign=top;align=center;html=1;fontSize=12;fontStyle=0;aspect=fixed;pointerEvents=1;shape=mxgraph.aws4.nat_gateway;hachureGap=4;fontFamily=Architects Daughter;fontSource=https%3A%2F%2Ffonts.googleapis.com%2Fcss%3Ffamily%3DArchitects%2BDaughter;rounded=0;" vertex="1" parent="7uyuWl18CzobCzFsrTEi-7">
          <mxGeometry x="146" y="76" width="78" height="78" as="geometry" />
        </mxCell>
        <mxCell id="7uyuWl18CzobCzFsrTEi-11" value="Public subnet - 2 : 192.168.0.64/26" style="points=[[0,0],[0.25,0],[0.5,0],[0.75,0],[1,0],[1,0.25],[1,0.5],[1,0.75],[1,1],[0.75,1],[0.5,1],[0.25,1],[0,1],[0,0.75],[0,0.5],[0,0.25]];outlineConnect=0;fontSize=12;fontStyle=1;container=1;pointerEvents=0;collapsible=0;recursiveResize=0;shape=mxgraph.aws4.group;grIcon=mxgraph.aws4.group_security_group;grStroke=0;verticalAlign=top;align=left;spacingLeft=30;dashed=0;rounded=0;strokeWidth=31;labelBorderColor=none;textShadow=1;labelBackgroundColor=none;" vertex="1" parent="7uyuWl18CzobCzFsrTEi-2">
          <mxGeometry x="480" y="80" width="250" height="240" as="geometry" />
        </mxCell>
        <mxCell id="7uyuWl18CzobCzFsrTEi-22" value="" style="points=[[0,0,0],[0.25,0,0],[0.5,0,0],[0.75,0,0],[1,0,0],[0,1,0],[0.25,1,0],[0.5,1,0],[0.75,1,0],[1,1,0],[0,0.25,0],[0,0.5,0],[0,0.75,0],[1,0.25,0],[1,0.5,0],[1,0.75,0]];outlineConnect=0;fontColor=#232F3E;fillColor=#ED7100;strokeColor=#ffffff;dashed=0;verticalLabelPosition=bottom;verticalAlign=top;align=center;html=1;fontSize=12;fontStyle=0;aspect=fixed;shape=mxgraph.aws4.resourceIcon;resIcon=mxgraph.aws4.ec2;hachureGap=4;fontFamily=Architects Daughter;fontSource=https%3A%2F%2Ffonts.googleapis.com%2Fcss%3Ffamily%3DArchitects%2BDaughter;rounded=0;" vertex="1" parent="7uyuWl18CzobCzFsrTEi-11">
          <mxGeometry x="90" y="74" width="70" height="70" as="geometry" />
        </mxCell>
        <mxCell id="7uyuWl18CzobCzFsrTEi-23" value="Webserver&lt;div&gt;Instance&amp;nbsp;&lt;/div&gt;" style="text;html=1;align=center;verticalAlign=middle;resizable=0;points=[];autosize=1;strokeColor=none;fillColor=none;fontFamily=Architects Daughter;fontSource=https%3A%2F%2Ffonts.googleapis.com%2Fcss%3Ffamily%3DArchitects%2BDaughter;fontStyle=1;labelBackgroundColor=none;labelBorderColor=none;textShadow=1;rounded=0;" vertex="1" parent="7uyuWl18CzobCzFsrTEi-11">
          <mxGeometry x="83" y="144" width="84" height="48" as="geometry" />
        </mxCell>
        <mxCell id="7uyuWl18CzobCzFsrTEi-52" value="" style="edgeStyle=orthogonalEdgeStyle;rounded=0;orthogonalLoop=1;jettySize=auto;html=1;" edge="1" parent="7uyuWl18CzobCzFsrTEi-2" source="7uyuWl18CzobCzFsrTEi-16" target="7uyuWl18CzobCzFsrTEi-32">
          <mxGeometry relative="1" as="geometry" />
        </mxCell>
        <mxCell id="7uyuWl18CzobCzFsrTEi-16" value="&lt;font color=&quot;#0f0f0f&quot;&gt;Private subnet - 1 : 192.168.0.128/26&lt;/font&gt;" style="points=[[0,0],[0.25,0],[0.5,0],[0.75,0],[1,0],[1,0.25],[1,0.5],[1,0.75],[1,1],[0.75,1],[0.5,1],[0.25,1],[0,1],[0,0.75],[0,0.5],[0,0.25]];outlineConnect=0;html=1;whiteSpace=wrap;fontSize=12;fontStyle=1;container=1;pointerEvents=0;collapsible=0;recursiveResize=0;shape=mxgraph.aws4.group;grIcon=mxgraph.aws4.group_security_group;grStroke=0;verticalAlign=top;align=left;spacingLeft=30;dashed=0;rounded=0;labelBorderColor=none;labelBackgroundColor=none;textShadow=1;gradientDirection=north;" vertex="1" parent="7uyuWl18CzobCzFsrTEi-2">
          <mxGeometry x="30" y="404" width="240" height="246" as="geometry" />
        </mxCell>
        <mxCell id="7uyuWl18CzobCzFsrTEi-19" value="" style="points=[[0,0,0],[0.25,0,0],[0.5,0,0],[0.75,0,0],[1,0,0],[0,1,0],[0.25,1,0],[0.5,1,0],[0.75,1,0],[1,1,0],[0,0.25,0],[0,0.5,0],[0,0.75,0],[1,0.25,0],[1,0.5,0],[1,0.75,0]];outlineConnect=0;fontColor=#232F3E;fillColor=#ED7100;strokeColor=#ffffff;dashed=0;verticalLabelPosition=bottom;verticalAlign=top;align=center;html=1;fontSize=12;fontStyle=0;aspect=fixed;shape=mxgraph.aws4.resourceIcon;resIcon=mxgraph.aws4.ec2;hachureGap=4;fontFamily=Architects Daughter;fontSource=https%3A%2F%2Ffonts.googleapis.com%2Fcss%3Ffamily%3DArchitects%2BDaughter;rounded=0;" vertex="1" parent="7uyuWl18CzobCzFsrTEi-16">
          <mxGeometry x="78" y="104" width="78" height="78" as="geometry" />
        </mxCell>
        <mxCell id="7uyuWl18CzobCzFsrTEi-21" value="Database&amp;nbsp;&lt;div&gt;Instance&lt;/div&gt;" style="text;html=1;align=center;verticalAlign=middle;resizable=0;points=[];autosize=1;strokeColor=none;fillColor=none;fontFamily=Architects Daughter;fontSource=https%3A%2F%2Ffonts.googleapis.com%2Fcss%3Ffamily%3DArchitects%2BDaughter;fontStyle=1;textShadow=1;fontColor=#f10e0e;rounded=0;" vertex="1" parent="7uyuWl18CzobCzFsrTEi-16">
          <mxGeometry x="78" y="182" width="84" height="48" as="geometry" />
        </mxCell>
        <mxCell id="7uyuWl18CzobCzFsrTEi-53" value="" style="edgeStyle=orthogonalEdgeStyle;rounded=0;orthogonalLoop=1;jettySize=auto;html=1;" edge="1" parent="7uyuWl18CzobCzFsrTEi-2" source="7uyuWl18CzobCzFsrTEi-17" target="7uyuWl18CzobCzFsrTEi-32">
          <mxGeometry relative="1" as="geometry" />
        </mxCell>
        <mxCell id="7uyuWl18CzobCzFsrTEi-17" value="&lt;span&gt;Private subnet&amp;nbsp;-2 : 192.168.0.192/26&lt;/span&gt;" style="points=[[0,0],[0.25,0],[0.5,0],[0.75,0],[1,0],[1,0.25],[1,0.5],[1,0.75],[1,1],[0.75,1],[0.5,1],[0.25,1],[0,1],[0,0.75],[0,0.5],[0,0.25]];outlineConnect=0;html=1;whiteSpace=wrap;fontSize=12;fontStyle=1;container=1;pointerEvents=0;collapsible=0;recursiveResize=0;shape=mxgraph.aws4.group;grIcon=mxgraph.aws4.group_security_group;grStroke=0;verticalAlign=top;align=left;spacingLeft=30;dashed=0;rounded=0;labelBorderColor=none;labelBackgroundColor=none;textShadow=1;gradientDirection=north;" vertex="1" parent="7uyuWl18CzobCzFsrTEi-2">
          <mxGeometry x="480" y="404" width="240" height="246" as="geometry" />
        </mxCell>
        <mxCell id="7uyuWl18CzobCzFsrTEi-24" value="" style="points=[[0,0,0],[0.25,0,0],[0.5,0,0],[0.75,0,0],[1,0,0],[0,1,0],[0.25,1,0],[0.5,1,0],[0.75,1,0],[1,1,0],[0,0.25,0],[0,0.5,0],[0,0.75,0],[1,0.25,0],[1,0.5,0],[1,0.75,0]];outlineConnect=0;fontColor=#232F3E;fillColor=#ED7100;strokeColor=#ffffff;dashed=0;verticalLabelPosition=bottom;verticalAlign=top;align=center;html=1;fontSize=12;fontStyle=0;aspect=fixed;shape=mxgraph.aws4.resourceIcon;resIcon=mxgraph.aws4.ec2;hachureGap=4;fontFamily=Architects Daughter;fontSource=https%3A%2F%2Ffonts.googleapis.com%2Fcss%3Ffamily%3DArchitects%2BDaughter;rounded=0;" vertex="1" parent="7uyuWl18CzobCzFsrTEi-17">
          <mxGeometry x="93" y="86" width="78" height="78" as="geometry" />
        </mxCell>
        <mxCell id="7uyuWl18CzobCzFsrTEi-25" value="Database&amp;nbsp;&lt;div&gt;Instance&lt;/div&gt;" style="text;html=1;align=center;verticalAlign=middle;resizable=0;points=[];autosize=1;strokeColor=none;fillColor=none;fontFamily=Architects Daughter;fontSource=https%3A%2F%2Ffonts.googleapis.com%2Fcss%3Ffamily%3DArchitects%2BDaughter;fontStyle=1;textShadow=1;fontColor=#f10e0e;rounded=0;" vertex="1" parent="7uyuWl18CzobCzFsrTEi-17">
          <mxGeometry x="90" y="170" width="84" height="48" as="geometry" />
        </mxCell>
        <mxCell id="7uyuWl18CzobCzFsrTEi-42" value="" style="rounded=0;hachureGap=4;orthogonalLoop=1;jettySize=auto;fontFamily=Architects Daughter;fontSource=https%3A%2F%2Ffonts.googleapis.com%2Fcss%3Ffamily%3DArchitects%2BDaughter;labelBackgroundColor=none;fontColor=none;noLabel=1;fontStyle=1;strokeColor=none;edgeStyle=orthogonalEdgeStyle;strokeWidth=9;endArrow=classic;endFill=1;" edge="1" parent="7uyuWl18CzobCzFsrTEi-2" source="7uyuWl18CzobCzFsrTEi-60" target="7uyuWl18CzobCzFsrTEi-20">
          <mxGeometry relative="1" as="geometry">
            <Array as="points" />
          </mxGeometry>
        </mxCell>
        <mxCell id="7uyuWl18CzobCzFsrTEi-67" value="" style="edgeStyle=orthogonalEdgeStyle;rounded=0;orthogonalLoop=1;jettySize=auto;html=1;" edge="1" parent="7uyuWl18CzobCzFsrTEi-2" source="7uyuWl18CzobCzFsrTEi-26" target="7uyuWl18CzobCzFsrTEi-60">
          <mxGeometry relative="1" as="geometry" />
        </mxCell>
        <mxCell id="7uyuWl18CzobCzFsrTEi-70" style="edgeStyle=orthogonalEdgeStyle;rounded=0;orthogonalLoop=1;jettySize=auto;html=1;" edge="1" parent="7uyuWl18CzobCzFsrTEi-2" source="7uyuWl18CzobCzFsrTEi-26" target="7uyuWl18CzobCzFsrTEi-11">
          <mxGeometry relative="1" as="geometry" />
        </mxCell>
        <mxCell id="7uyuWl18CzobCzFsrTEi-73" value="" style="edgeStyle=orthogonalEdgeStyle;rounded=0;orthogonalLoop=1;jettySize=auto;html=1;" edge="1" parent="7uyuWl18CzobCzFsrTEi-2" source="7uyuWl18CzobCzFsrTEi-26" target="7uyuWl18CzobCzFsrTEi-4">
          <mxGeometry relative="1" as="geometry">
            <Array as="points">
              <mxPoint x="374" y="154" />
              <mxPoint x="374" y="154" />
            </Array>
          </mxGeometry>
        </mxCell>
        <mxCell id="7uyuWl18CzobCzFsrTEi-26" value="" style="outlineConnect=0;fontColor=#232F3E;gradientColor=none;fillColor=#8C4FFF;strokeColor=none;dashed=0;verticalLabelPosition=bottom;verticalAlign=top;align=center;html=1;fontSize=12;fontStyle=0;aspect=fixed;pointerEvents=1;shape=mxgraph.aws4.route_table;hachureGap=4;fontFamily=Architects Daughter;fontSource=https%3A%2F%2Ffonts.googleapis.com%2Fcss%3Ffamily%3DArchitects%2BDaughter;rounded=0;" vertex="1" parent="7uyuWl18CzobCzFsrTEi-2">
          <mxGeometry x="300.24" y="138" width="146.76" height="143" as="geometry" />
        </mxCell>
        <mxCell id="7uyuWl18CzobCzFsrTEi-27" value="&lt;span style=&quot;font-size: 17px;&quot;&gt;RT For Public&lt;/span&gt;" style="text;html=1;align=center;verticalAlign=middle;resizable=0;points=[];autosize=1;strokeColor=none;fillColor=none;fontFamily=Architects Daughter;fontSource=https%3A%2F%2Ffonts.googleapis.com%2Fcss%3Ffamily%3DArchitects%2BDaughter;rounded=0;dashed=1;fontStyle=1;textShadow=1;labelBorderColor=default;labelBackgroundColor=none;fontSize=17;" vertex="1" parent="7uyuWl18CzobCzFsrTEi-2">
          <mxGeometry x="303" y="281" width="144" height="36" as="geometry" />
        </mxCell>
        <mxCell id="7uyuWl18CzobCzFsrTEi-32" value="" style="outlineConnect=0;fontColor=#232F3E;gradientColor=none;fillColor=#8C4FFF;strokeColor=none;dashed=0;verticalLabelPosition=bottom;verticalAlign=top;align=center;html=1;fontSize=12;fontStyle=0;aspect=fixed;pointerEvents=1;shape=mxgraph.aws4.route_table;hachureGap=4;fontFamily=Architects Daughter;fontSource=https%3A%2F%2Ffonts.googleapis.com%2Fcss%3Ffamily%3DArchitects%2BDaughter;rounded=0;" vertex="1" parent="7uyuWl18CzobCzFsrTEi-2">
          <mxGeometry x="303" y="432.75" width="146.76" height="143" as="geometry" />
        </mxCell>
        <mxCell id="7uyuWl18CzobCzFsrTEi-33" value="Main Route Table" style="text;html=1;align=center;verticalAlign=middle;resizable=0;points=[];autosize=1;strokeColor=none;fillColor=none;fontFamily=Architects Daughter;fontSource=https%3A%2F%2Ffonts.googleapis.com%2Fcss%3Ffamily%3DArchitects%2BDaughter;rounded=0;dashed=1;fontStyle=1;textShadow=1;labelBorderColor=default;labelBackgroundColor=none;fontSize=17;" vertex="1" parent="7uyuWl18CzobCzFsrTEi-2">
          <mxGeometry x="298.38" y="585.25" width="156" height="36" as="geometry" />
        </mxCell>
        <mxCell id="7uyuWl18CzobCzFsrTEi-61" value="" style="rounded=0;hachureGap=4;orthogonalLoop=1;jettySize=auto;fontFamily=Architects Daughter;fontSource=https%3A%2F%2Ffonts.googleapis.com%2Fcss%3Ffamily%3DArchitects%2BDaughter;labelBackgroundColor=none;fontColor=none;noLabel=1;fontStyle=1;strokeColor=none;edgeStyle=orthogonalEdgeStyle;strokeWidth=9;endArrow=classic;endFill=1;" edge="1" parent="7uyuWl18CzobCzFsrTEi-2" source="7uyuWl18CzobCzFsrTEi-26" target="7uyuWl18CzobCzFsrTEi-60">
          <mxGeometry relative="1" as="geometry">
            <mxPoint x="341" y="288" as="sourcePoint" />
            <mxPoint x="185" y="300" as="targetPoint" />
            <Array as="points">
              <mxPoint x="264" y="288" />
              <mxPoint x="264" y="300" />
            </Array>
          </mxGeometry>
        </mxCell>
        <mxCell id="7uyuWl18CzobCzFsrTEi-60" value="&lt;span&gt;NAT Gateways&amp;nbsp;&lt;/span&gt;" style="text;html=1;align=center;verticalAlign=middle;resizable=0;points=[];autosize=1;strokeColor=none;fillColor=none;textShadow=1;fontStyle=1" vertex="1" parent="7uyuWl18CzobCzFsrTEi-2">
          <mxGeometry x="161" y="238" width="108" height="24" as="geometry" />
        </mxCell>
        <mxCell id="7uyuWl18CzobCzFsrTEi-62" value="VPC : 192.168.0.0/26" style="text;html=1;align=center;verticalAlign=middle;resizable=0;points=[];autosize=1;strokeColor=none;fillColor=none;fontStyle=1;textShadow=1;labelBorderColor=none;fontSize=13;" vertex="1" parent="7uyuWl18CzobCzFsrTEi-2">
          <mxGeometry x="20" width="156" height="36" as="geometry" />
        </mxCell>
        <mxCell id="7uyuWl18CzobCzFsrTEi-65" style="edgeStyle=orthogonalEdgeStyle;rounded=0;orthogonalLoop=1;jettySize=auto;html=1;entryX=0.472;entryY=0.5;entryDx=0;entryDy=0;entryPerimeter=0;" edge="1" parent="7uyuWl18CzobCzFsrTEi-2" source="7uyuWl18CzobCzFsrTEi-16" target="7uyuWl18CzobCzFsrTEi-60">
          <mxGeometry relative="1" as="geometry" />
        </mxCell>
        <mxCell id="7uyuWl18CzobCzFsrTEi-66" style="edgeStyle=orthogonalEdgeStyle;rounded=0;orthogonalLoop=1;jettySize=auto;html=1;entryX=0.469;entryY=1.026;entryDx=0;entryDy=0;entryPerimeter=0;" edge="1" parent="7uyuWl18CzobCzFsrTEi-2" source="7uyuWl18CzobCzFsrTEi-17" target="7uyuWl18CzobCzFsrTEi-44">
          <mxGeometry relative="1" as="geometry" />
        </mxCell>
        <mxCell id="7uyuWl18CzobCzFsrTEi-76" value="&lt;span&gt;&lt;font style=&quot;font-size: 22px;&quot;&gt;VPC Distributed Across AZ&lt;/font&gt;&lt;/span&gt;" style="text;html=1;align=center;verticalAlign=middle;resizable=0;points=[];autosize=1;labelBackgroundColor=default;labelBorderColor=default;textShadow=1;fontStyle=1;rounded=0;glass=0;shadow=0;" vertex="1" parent="1">
          <mxGeometry x="282" y="-42" width="288" height="36" as="geometry" />
        </mxCell>
      </root>
    </mxGraphModel>
  </diagram>
  <diagram id="cDwt8dhS35wnPMOoWGCe" name="Page-2">
    <mxGraphModel dx="2184" dy="963" grid="1" gridSize="12" guides="1" tooltips="1" connect="1" arrows="1" fold="1" page="0" pageScale="1" pageWidth="1169" pageHeight="827" math="0" shadow="0">
      <root>
        <mxCell id="0" />
        <mxCell id="1" parent="0" />
        <mxCell id="gg58c_q4Y5pt4XW85AlR-2" value="&lt;div style=&quot;font-size: 14px;&quot;&gt;&lt;b style=&quot;&quot;&gt;&lt;font style=&quot;font-size: 14px;&quot;&gt;ap-south-1a ( Mumbai )&lt;/font&gt;&lt;/b&gt;&lt;/div&gt;&lt;div style=&quot;font-size: 14px;&quot;&gt;&lt;br&gt;&lt;/div&gt;" style="points=[[0,0],[0.25,0],[0.5,0],[0.75,0],[1,0],[1,0.25],[1,0.5],[1,0.75],[1,1],[0.75,1],[0.5,1],[0.25,1],[0,1],[0,0.75],[0,0.5],[0,0.25]];outlineConnect=0;gradientColor=none;html=1;whiteSpace=wrap;fontSize=12;fontStyle=0;container=1;pointerEvents=0;collapsible=0;recursiveResize=0;shape=mxgraph.aws4.group;grIcon=mxgraph.aws4.group_region;strokeColor=#00A4A6;fillColor=none;verticalAlign=top;align=left;spacingLeft=30;fontColor=#147EBA;dashed=1;fontFamily=Verdana;" vertex="1" parent="1">
          <mxGeometry x="-288" y="-36" width="780" height="504" as="geometry" />
        </mxCell>
        <mxCell id="gg58c_q4Y5pt4XW85AlR-3" value="A-VPC : 192.168.0.0/24" style="points=[[0,0],[0.25,0],[0.5,0],[0.75,0],[1,0],[1,0.25],[1,0.5],[1,0.75],[1,1],[0.75,1],[0.5,1],[0.25,1],[0,1],[0,0.75],[0,0.5],[0,0.25]];outlineConnect=0;gradientColor=none;html=1;whiteSpace=wrap;fontSize=12;fontStyle=0;container=1;pointerEvents=0;collapsible=0;recursiveResize=0;shape=mxgraph.aws4.group;grIcon=mxgraph.aws4.group_vpc2;strokeColor=#8C4FFF;fillColor=none;verticalAlign=top;align=left;spacingLeft=30;fontColor=#0f1010;dashed=0;" vertex="1" parent="gg58c_q4Y5pt4XW85AlR-2">
          <mxGeometry x="60" y="48" width="288" height="204" as="geometry" />
        </mxCell>
        <mxCell id="gg58c_q4Y5pt4XW85AlR-8" value="A-Subnet&amp;nbsp;" style="points=[[0,0],[0.25,0],[0.5,0],[0.75,0],[1,0],[1,0.25],[1,0.5],[1,0.75],[1,1],[0.75,1],[0.5,1],[0.25,1],[0,1],[0,0.75],[0,0.5],[0,0.25]];outlineConnect=0;gradientColor=none;html=1;whiteSpace=wrap;fontSize=12;fontStyle=0;container=1;pointerEvents=0;collapsible=0;recursiveResize=0;shape=mxgraph.aws4.group;grIcon=mxgraph.aws4.group_security_group;grStroke=0;strokeColor=#00A4A6;fillColor=#E6F6F7;verticalAlign=top;align=left;spacingLeft=30;fontColor=#147EBA;dashed=0;" vertex="1" parent="gg58c_q4Y5pt4XW85AlR-3">
          <mxGeometry x="30" y="36" width="228" height="156" as="geometry" />
        </mxCell>
        <mxCell id="gg58c_q4Y5pt4XW85AlR-12" value="" style="sketch=0;points=[[0,0,0],[0.25,0,0],[0.5,0,0],[0.75,0,0],[1,0,0],[0,1,0],[0.25,1,0],[0.5,1,0],[0.75,1,0],[1,1,0],[0,0.25,0],[0,0.5,0],[0,0.75,0],[1,0.25,0],[1,0.5,0],[1,0.75,0]];outlineConnect=0;fontColor=#232F3E;fillColor=#ED7100;strokeColor=#ffffff;dashed=0;verticalLabelPosition=bottom;verticalAlign=top;align=center;html=1;fontSize=12;fontStyle=0;aspect=fixed;shape=mxgraph.aws4.resourceIcon;resIcon=mxgraph.aws4.ec2;" vertex="1" parent="gg58c_q4Y5pt4XW85AlR-8">
          <mxGeometry x="42" y="48" width="78" height="78" as="geometry" />
        </mxCell>
        <mxCell id="gg58c_q4Y5pt4XW85AlR-16" value="A-Instance" style="text;html=1;align=center;verticalAlign=middle;resizable=0;points=[];autosize=1;strokeColor=none;fillColor=none;" vertex="1" parent="gg58c_q4Y5pt4XW85AlR-8">
          <mxGeometry x="126" y="84" width="84" height="24" as="geometry" />
        </mxCell>
        <mxCell id="gg58c_q4Y5pt4XW85AlR-6" value="B-VPC : 192.168.1.0/24" style="points=[[0,0],[0.25,0],[0.5,0],[0.75,0],[1,0],[1,0.25],[1,0.5],[1,0.75],[1,1],[0.75,1],[0.5,1],[0.25,1],[0,1],[0,0.75],[0,0.5],[0,0.25]];outlineConnect=0;gradientColor=none;html=1;whiteSpace=wrap;fontSize=12;fontStyle=0;container=1;pointerEvents=0;collapsible=0;recursiveResize=0;shape=mxgraph.aws4.group;grIcon=mxgraph.aws4.group_vpc2;strokeColor=#8C4FFF;fillColor=none;verticalAlign=top;align=left;spacingLeft=30;fontColor=#050506;dashed=0;" vertex="1" parent="gg58c_q4Y5pt4XW85AlR-2">
          <mxGeometry x="432" y="48" width="288" height="204" as="geometry" />
        </mxCell>
        <mxCell id="gg58c_q4Y5pt4XW85AlR-10" value="B-Subnet" style="points=[[0,0],[0.25,0],[0.5,0],[0.75,0],[1,0],[1,0.25],[1,0.5],[1,0.75],[1,1],[0.75,1],[0.5,1],[0.25,1],[0,1],[0,0.75],[0,0.5],[0,0.25]];outlineConnect=0;gradientColor=none;html=1;whiteSpace=wrap;fontSize=12;fontStyle=0;container=1;pointerEvents=0;collapsible=0;recursiveResize=0;shape=mxgraph.aws4.group;grIcon=mxgraph.aws4.group_security_group;grStroke=0;strokeColor=#00A4A6;fillColor=#E6F6F7;verticalAlign=top;align=left;spacingLeft=30;fontColor=#147EBA;dashed=0;" vertex="1" parent="gg58c_q4Y5pt4XW85AlR-6">
          <mxGeometry x="30" y="36" width="228" height="156" as="geometry" />
        </mxCell>
        <mxCell id="gg58c_q4Y5pt4XW85AlR-15" value="" style="sketch=0;points=[[0,0,0],[0.25,0,0],[0.5,0,0],[0.75,0,0],[1,0,0],[0,1,0],[0.25,1,0],[0.5,1,0],[0.75,1,0],[1,1,0],[0,0.25,0],[0,0.5,0],[0,0.75,0],[1,0.25,0],[1,0.5,0],[1,0.75,0]];outlineConnect=0;fontColor=#232F3E;fillColor=#ED7100;strokeColor=#ffffff;dashed=0;verticalLabelPosition=bottom;verticalAlign=top;align=center;html=1;fontSize=12;fontStyle=0;aspect=fixed;shape=mxgraph.aws4.resourceIcon;resIcon=mxgraph.aws4.ec2;" vertex="1" parent="gg58c_q4Y5pt4XW85AlR-10">
          <mxGeometry x="42" y="48" width="78" height="78" as="geometry" />
        </mxCell>
        <mxCell id="gg58c_q4Y5pt4XW85AlR-18" value="B-Instance" style="text;html=1;align=center;verticalAlign=middle;resizable=0;points=[];autosize=1;strokeColor=none;fillColor=none;" vertex="1" parent="gg58c_q4Y5pt4XW85AlR-10">
          <mxGeometry x="120" y="84" width="84" height="24" as="geometry" />
        </mxCell>
        <mxCell id="gg58c_q4Y5pt4XW85AlR-5" value="C-VPC : 192.168.2.0/24" style="points=[[0,0],[0.25,0],[0.5,0],[0.75,0],[1,0],[1,0.25],[1,0.5],[1,0.75],[1,1],[0.75,1],[0.5,1],[0.25,1],[0,1],[0,0.75],[0,0.5],[0,0.25]];outlineConnect=0;gradientColor=none;html=1;whiteSpace=wrap;fontSize=12;fontStyle=0;container=1;pointerEvents=0;collapsible=0;recursiveResize=0;shape=mxgraph.aws4.group;grIcon=mxgraph.aws4.group_vpc2;strokeColor=#8C4FFF;fillColor=none;verticalAlign=top;align=left;spacingLeft=30;fontColor=#050505;dashed=0;" vertex="1" parent="gg58c_q4Y5pt4XW85AlR-2">
          <mxGeometry x="60" y="276" width="288" height="216" as="geometry" />
        </mxCell>
        <mxCell id="gg58c_q4Y5pt4XW85AlR-11" value="C-Subnet" style="points=[[0,0],[0.25,0],[0.5,0],[0.75,0],[1,0],[1,0.25],[1,0.5],[1,0.75],[1,1],[0.75,1],[0.5,1],[0.25,1],[0,1],[0,0.75],[0,0.5],[0,0.25]];outlineConnect=0;gradientColor=none;html=1;whiteSpace=wrap;fontSize=12;fontStyle=0;container=1;pointerEvents=0;collapsible=0;recursiveResize=0;shape=mxgraph.aws4.group;grIcon=mxgraph.aws4.group_security_group;grStroke=0;strokeColor=#00A4A6;fillColor=#E6F6F7;verticalAlign=top;align=left;spacingLeft=30;fontColor=#147EBA;dashed=0;" vertex="1" parent="gg58c_q4Y5pt4XW85AlR-5">
          <mxGeometry x="30" y="30" width="228" height="156" as="geometry" />
        </mxCell>
        <mxCell id="gg58c_q4Y5pt4XW85AlR-14" value="" style="sketch=0;points=[[0,0,0],[0.25,0,0],[0.5,0,0],[0.75,0,0],[1,0,0],[0,1,0],[0.25,1,0],[0.5,1,0],[0.75,1,0],[1,1,0],[0,0.25,0],[0,0.5,0],[0,0.75,0],[1,0.25,0],[1,0.5,0],[1,0.75,0]];outlineConnect=0;fontColor=#232F3E;fillColor=#ED7100;strokeColor=#ffffff;dashed=0;verticalLabelPosition=bottom;verticalAlign=top;align=center;html=1;fontSize=12;fontStyle=0;aspect=fixed;shape=mxgraph.aws4.resourceIcon;resIcon=mxgraph.aws4.ec2;" vertex="1" parent="gg58c_q4Y5pt4XW85AlR-11">
          <mxGeometry x="42" y="51" width="78" height="78" as="geometry" />
        </mxCell>
        <mxCell id="gg58c_q4Y5pt4XW85AlR-19" value="C-Instance" style="text;html=1;align=center;verticalAlign=middle;resizable=0;points=[];autosize=1;strokeColor=none;fillColor=none;" vertex="1" parent="gg58c_q4Y5pt4XW85AlR-11">
          <mxGeometry x="120" y="78" width="84" height="24" as="geometry" />
        </mxCell>
        <mxCell id="gg58c_q4Y5pt4XW85AlR-4" value="D-VPC : 192.168.3.0/24" style="points=[[0,0],[0.25,0],[0.5,0],[0.75,0],[1,0],[1,0.25],[1,0.5],[1,0.75],[1,1],[0.75,1],[0.5,1],[0.25,1],[0,1],[0,0.75],[0,0.5],[0,0.25]];outlineConnect=0;gradientColor=none;html=1;whiteSpace=wrap;fontSize=12;fontStyle=0;container=1;pointerEvents=0;collapsible=0;recursiveResize=0;shape=mxgraph.aws4.group;grIcon=mxgraph.aws4.group_vpc2;strokeColor=#8C4FFF;fillColor=none;verticalAlign=top;align=left;spacingLeft=30;fontColor=#141414;dashed=0;" vertex="1" parent="gg58c_q4Y5pt4XW85AlR-2">
          <mxGeometry x="432" y="276" width="288" height="216" as="geometry" />
        </mxCell>
        <mxCell id="gg58c_q4Y5pt4XW85AlR-9" value="D-Subnet" style="points=[[0,0],[0.25,0],[0.5,0],[0.75,0],[1,0],[1,0.25],[1,0.5],[1,0.75],[1,1],[0.75,1],[0.5,1],[0.25,1],[0,1],[0,0.75],[0,0.5],[0,0.25]];outlineConnect=0;gradientColor=none;html=1;whiteSpace=wrap;fontSize=12;fontStyle=0;container=1;pointerEvents=0;collapsible=0;recursiveResize=0;shape=mxgraph.aws4.group;grIcon=mxgraph.aws4.group_security_group;grStroke=0;strokeColor=#00A4A6;fillColor=#E6F6F7;verticalAlign=top;align=left;spacingLeft=30;fontColor=#147EBA;dashed=0;" vertex="1" parent="gg58c_q4Y5pt4XW85AlR-4">
          <mxGeometry x="30" y="30" width="228" height="156" as="geometry" />
        </mxCell>
        <mxCell id="gg58c_q4Y5pt4XW85AlR-13" value="" style="sketch=0;points=[[0,0,0],[0.25,0,0],[0.5,0,0],[0.75,0,0],[1,0,0],[0,1,0],[0.25,1,0],[0.5,1,0],[0.75,1,0],[1,1,0],[0,0.25,0],[0,0.5,0],[0,0.75,0],[1,0.25,0],[1,0.5,0],[1,0.75,0]];outlineConnect=0;fontColor=#232F3E;fillColor=#ED7100;strokeColor=#ffffff;dashed=0;verticalLabelPosition=bottom;verticalAlign=top;align=center;html=1;fontSize=12;fontStyle=0;aspect=fixed;shape=mxgraph.aws4.resourceIcon;resIcon=mxgraph.aws4.ec2;" vertex="1" parent="gg58c_q4Y5pt4XW85AlR-9">
          <mxGeometry x="42" y="54" width="78" height="78" as="geometry" />
        </mxCell>
        <mxCell id="gg58c_q4Y5pt4XW85AlR-17" value="D-Instance" style="text;html=1;align=center;verticalAlign=middle;resizable=0;points=[];autosize=1;strokeColor=none;fillColor=none;" vertex="1" parent="gg58c_q4Y5pt4XW85AlR-9">
          <mxGeometry x="120" y="81" width="84" height="24" as="geometry" />
        </mxCell>
        <mxCell id="gg58c_q4Y5pt4XW85AlR-7" value="" style="sketch=0;points=[[0,0,0],[0.25,0,0],[0.5,0,0],[0.75,0,0],[1,0,0],[0,1,0],[0.25,1,0],[0.5,1,0],[0.75,1,0],[1,1,0],[0,0.25,0],[0,0.5,0],[0,0.75,0],[1,0.25,0],[1,0.5,0],[1,0.75,0]];outlineConnect=0;fontColor=#232F3E;fillColor=#8C4FFF;strokeColor=#ffffff;dashed=0;verticalLabelPosition=bottom;verticalAlign=top;align=center;html=1;fontSize=12;fontStyle=0;aspect=fixed;shape=mxgraph.aws4.resourceIcon;resIcon=mxgraph.aws4.transit_gateway;" vertex="1" parent="gg58c_q4Y5pt4XW85AlR-2">
          <mxGeometry x="348" y="222" width="84" height="84" as="geometry" />
        </mxCell>
        <mxCell id="gg58c_q4Y5pt4XW85AlR-27" value="" style="edgeStyle=orthogonalEdgeStyle;rounded=0;orthogonalLoop=1;jettySize=auto;html=1;" edge="1" parent="gg58c_q4Y5pt4XW85AlR-2" source="gg58c_q4Y5pt4XW85AlR-24" target="gg58c_q4Y5pt4XW85AlR-8">
          <mxGeometry relative="1" as="geometry" />
        </mxCell>
        <mxCell id="gg58c_q4Y5pt4XW85AlR-24" value="" style="sketch=0;outlineConnect=0;fontColor=#232F3E;gradientColor=none;fillColor=#8C4FFF;strokeColor=none;dashed=0;verticalLabelPosition=bottom;verticalAlign=top;align=center;html=1;fontSize=12;fontStyle=0;aspect=fixed;pointerEvents=1;shape=mxgraph.aws4.endpoints;" vertex="1" parent="gg58c_q4Y5pt4XW85AlR-2">
          <mxGeometry y="144" width="60" height="60" as="geometry" />
        </mxCell>
        <mxCell id="gg58c_q4Y5pt4XW85AlR-25" style="edgeStyle=orthogonalEdgeStyle;rounded=0;orthogonalLoop=1;jettySize=auto;html=1;" edge="1" parent="gg58c_q4Y5pt4XW85AlR-2">
          <mxGeometry relative="1" as="geometry">
            <mxPoint x="-144.0000000000001" y="288" as="sourcePoint" />
            <mxPoint x="12.860000000000014" y="204" as="targetPoint" />
            <Array as="points">
              <mxPoint x="12.860000000000014" y="288" />
            </Array>
          </mxGeometry>
        </mxCell>
        <mxCell id="gg58c_q4Y5pt4XW85AlR-20" value="" style="points=[[0.13,0.02,0],[0.5,0,0],[0.87,0.02,0],[0.885,0.4,0],[0.985,0.985,0],[0.5,1,0],[0.015,0.985,0],[0.115,0.4,0]];verticalLabelPosition=bottom;sketch=0;html=1;verticalAlign=top;aspect=fixed;align=center;pointerEvents=1;shape=mxgraph.cisco19.laptop;fillColor=#005073;strokeColor=none;" vertex="1" parent="1">
          <mxGeometry x="-480" y="204" width="137.14" height="96" as="geometry" />
        </mxCell>
        <mxCell id="gg58c_q4Y5pt4XW85AlR-28" value="&lt;span&gt;&lt;font style=&quot;font-size: 20px;&quot;&gt;Laptop&amp;nbsp;&lt;/font&gt;&lt;/span&gt;" style="text;html=1;align=center;verticalAlign=middle;resizable=0;points=[];autosize=1;strokeColor=none;fillColor=none;fontStyle=1;textShadow=1;labelBorderColor=none;labelBackgroundColor=none;fontFamily=Comic Sans MS;" vertex="1" parent="1">
          <mxGeometry x="-459.43" y="300" width="96" height="36" as="geometry" />
        </mxCell>
        <mxCell id="gg58c_q4Y5pt4XW85AlR-29" value="&lt;span style=&quot;font-size: 27px;&quot;&gt;&lt;font style=&quot;font-size: 27px;&quot;&gt;AWS Transit Gateway Practical&amp;nbsp;&lt;/font&gt;&lt;/span&gt;" style="text;html=1;align=center;verticalAlign=middle;resizable=0;points=[];autosize=1;strokeColor=none;fillColor=none;fontStyle=1;textShadow=1;fontFamily=Comic Sans MS;fontSize=27;" vertex="1" parent="1">
          <mxGeometry x="-150" y="-138" width="432" height="48" as="geometry" />
        </mxCell>
      </root>
    </mxGraphModel>
  </diagram>
</mxfile>
